<?xml version="1.0" encoding="UTF-8"?>
<svg xmlns="http://www.w3.org/2000/svg" xmlns:xlink="http://www.w3.org/1999/xlink" viewBox="0 0 300 140" width="600" height="280" role="img" aria-labelledby="t d" xml:lang="pt-BR" font-family="'Segoe UI', system-ui, -apple-system, Roboto, Helvetica, Arial, sans-serif">
<title id="t">Clique com o botão direito no zip e escolha Extrair Tudo</title>
<desc id="d">Uma pasta com zíper, chamada Penumbra-Windows, e o menu do botão direito: Abrir, Extrair Tudo..., Compartilhar. Extrair Tudo está destacado.</desc>
<rect x="0.5" y="0.5" width="299" height="139" rx="15.5" fill="#1c1228" stroke="#8d7aa8" stroke-opacity="0.6"/>
<g transform="translate(26 22)">
<path d="M0 10a6 6 0 0 1 6-6h24l8 8h38a6 6 0 0 1 6 6v46a6 6 0 0 1-6 6H6a6 6 0 0 1-6-6z" fill="#f2c14e"/>
<path d="M0 22h82v42a6 6 0 0 1-6 6H6a6 6 0 0 1-6-6z" fill="#f7d06a"/>
<rect x="36" y="4" width="10" height="66" fill="#7a5b17"/>
<path d="M36 10h10M36 18h10M36 26h10M36 34h10M36 42h10" stroke="#f7e3a3" stroke-width="2.5"/>
<rect x="33" y="48" width="16" height="14" rx="3" fill="#5a4210"/>
</g>
<text x="67" y="120" font-size="10.5" font-weight="600" fill="#f7f0ff" text-anchor="middle">Penumbra-Windows</text>
<rect x="134" y="16" width="152" height="108" rx="10" fill="#ffffff"/>
<text x="150" y="44" font-size="14" fill="#202024">Abrir</text>
<rect x="140" y="56" width="140" height="32" rx="6" fill="#dbeafe" stroke="#0067c0" stroke-width="2"/>
<text x="150" y="77" font-size="13.2" font-weight="700" fill="#0b3d75">Extrair Tudo...</text>
<text x="150" y="110" font-size="14" fill="#202024">Compartilhar</text>
<path d="M262 70v28l7-6.5 5 11 5-2.2-5-10.8h9.5z" fill="#ffffff" stroke="#111111" stroke-width="1.6" stroke-linejoin="round"/>
</svg>
